<svg xmlns="http://www.w3.org/2000/svg" viewBox="0 0 280 64" fill="none">
  <defs>
    <!-- Outer Rim Gold Gradient -->
    <linearGradient id="fullGoldGrad" x1="0%" y1="0%" x2="100%" y2="100%">
      <stop offset="0%" stop-color="#FDE047" />
      <stop offset="50%" stop-color="#F59E0B" />
      <stop offset="100%" stop-color="#D97706" />
    </linearGradient>

    <!-- Center Hub Dark Gradient -->
    <linearGradient id="fullHubGrad" x1="0%" y1="0%" x2="100%" y2="100%">
      <stop offset="0%" stop-color="#1E293B" />
      <stop offset="100%" stop-color="#0B0F19" />
    </linearGradient>

    <!-- Text Gradient for DRIP -->
    <linearGradient id="fullTextGrad" x1="0%" y1="0%" x2="100%" y2="0%">
      <stop offset="0%" stop-color="#3B82F6" />
      <stop offset="50%" stop-color="#6366F1" />
      <stop offset="100%" stop-color="#8B5CF6" />
    </linearGradient>
  </defs>

  <!-- ── 1. Lucky Wheel D Emblem (Left) ── -->
  <g transform="translate(0, 0)">
    <!-- Outer Wheel Rim Background -->
    <circle cx="32" cy="34" r="26" fill="#0B0F19" />
    <circle cx="32" cy="34" r="25" stroke="url(#fullGoldGrad)" stroke-width="2.5" fill="none" />

    <!-- 8 Wheel Slices -->
    <g>
      <!-- Slice 1: Electric Blue -->
      <path d="M 32 34 L 32 11 A 23 23 0 0 1 48.26 17.74 Z" fill="#2563EB" />
      <!-- Slice 2: Cyber Purple -->
      <path d="M 32 34 L 48.26 17.74 A 23 23 0 0 1 55 34 Z" fill="#7C3AED" />
      <!-- Slice 3: Hot Magenta -->
      <path d="M 32 34 L 55 34 A 23 23 0 0 1 48.26 50.26 Z" fill="#EC4899" />
      <!-- Slice 4: Sunset Orange -->
      <path d="M 32 34 L 48.26 50.26 A 23 23 0 0 1 32 57 Z" fill="#F97316" />
      <!-- Slice 5: Emerald Green -->
      <path d="M 32 34 L 32 57 A 23 23 0 0 1 15.74 50.26 Z" fill="#10B981" />
      <!-- Slice 6: Aqua Cyan -->
      <path d="M 32 34 L 15.74 50.26 A 23 23 0 0 1 9 34 Z" fill="#06B6D4" />
      <!-- Slice 7: Royal Indigo -->
      <path d="M 32 34 L 9 34 A 23 23 0 0 1 15.74 17.74 Z" fill="#4F46E5" />
      <!-- Slice 8: Sky Blue -->
      <path d="M 32 34 L 15.74 17.74 A 23 23 0 0 1 32 11 Z" fill="#0EA5E9" />

      <!-- White Spokes -->
      <line x1="32" y1="34" x2="32" y2="11" stroke="#FFFFFF" stroke-width="1.2" opacity="0.65" />
      <line x1="32" y1="34" x2="48.26" y2="17.74" stroke="#FFFFFF" stroke-width="1.2" opacity="0.65" />
      <line x1="32" y1="34" x2="55" y2="34" stroke="#FFFFFF" stroke-width="1.2" opacity="0.65" />
      <line x1="32" y1="34" x2="48.26" y2="50.26" stroke="#FFFFFF" stroke-width="1.2" opacity="0.65" />
      <line x1="32" y1="34" x2="32" y2="57" stroke="#FFFFFF" stroke-width="1.2" opacity="0.65" />
      <line x1="32" y1="34" x2="15.74" y2="50.26" stroke="#FFFFFF" stroke-width="1.2" opacity="0.65" />
      <line x1="32" y1="34" x2="9" y2="34" stroke="#FFFFFF" stroke-width="1.2" opacity="0.65" />
      <line x1="32" y1="34" x2="15.74" y2="17.74" stroke="#FFFFFF" stroke-width="1.2" opacity="0.65" />

      <!-- Pegs -->
      <circle cx="32" cy="12" r="1.3" fill="#FFFFFF" />
      <circle cx="47.6" cy="18.4" r="1.3" fill="#FFFFFF" />
      <circle cx="54" cy="34" r="1.3" fill="#FFFFFF" />
      <circle cx="47.6" cy="49.6" r="1.3" fill="#FFFFFF" />
      <circle cx="32" cy="56" r="1.3" fill="#FFFFFF" />
      <circle cx="16.4" cy="49.6" r="1.3" fill="#FFFFFF" />
      <circle cx="10" cy="34" r="1.3" fill="#FFFFFF" />
      <circle cx="16.4" cy="18.4" r="1.3" fill="#FFFFFF" />
    </g>

    <!-- Center Hub with Letter 'D' -->
    <circle cx="32" cy="34" r="12.5" fill="url(#fullHubGrad)" stroke="url(#fullGoldGrad)" stroke-width="2" />
    <text x="32" y="39.5" font-family="system-ui, -apple-system, sans-serif" font-size="15" font-weight="900" text-anchor="middle" fill="#FFFFFF" letter-spacing="-0.5">D</text>

    <!-- Golden Pointer at Top -->
    <path d="M 27.5 4 L 36.5 4 L 32 14 Z" fill="url(#fullGoldGrad)" stroke="#0F172A" stroke-width="1" />
    <circle cx="32" cy="5" r="1.5" fill="#FFFFFF" />
  </g>

  <!-- ── 2. Branding Typography (Right) ── -->
  <g transform="translate(74, 0)">
    <!-- Primary Title: DIP & DRIP -->
    <text x="0" y="37" font-family="system-ui, -apple-system, BlinkMacSystemFont, 'Segoe UI', Roboto, sans-serif" font-size="24" font-weight="900" letter-spacing="-0.8">
      <tspan fill="currentColor" class="text-slate-900 dark:text-white">DIP </tspan>
      <tspan fill="#F59E0B" font-size="20" font-weight="700">&amp; </tspan>
      <tspan fill="url(#fullTextGrad)">DRIP</tspan>
    </text>

    <!-- Subtitle / Tagline: STREETWEAR & LUCKY BOX -->
    <text x="1" y="52" font-family="'GeistMono', monospace, ui-monospace, sans-serif" font-size="8.5" font-weight="700" letter-spacing="2.2" fill="#94A3B8">
      STREETWEAR &amp; LUCKY BOX
    </text>
  </g>
</svg>
